<?xml version="1.0" encoding="UTF-8" standalone="no"?>
<!-- Generator: Adobe Illustrator 11.0, SVG Export Plug-In  -->

<svg
   xmlns:dc="http://purl.org/dc/elements/1.1/"
   xmlns:cc="http://creativecommons.org/ns#"
   xmlns:rdf="http://www.w3.org/1999/02/22-rdf-syntax-ns#"
   xmlns:svg="http://www.w3.org/2000/svg"
   xmlns="http://www.w3.org/2000/svg"
   xmlns:sodipodi="http://sodipodi.sourceforge.net/DTD/sodipodi-0.dtd"
   xmlns:inkscape="http://www.inkscape.org/namespaces/inkscape"
   width="1000"
   height="651.45203"
   viewBox="-0.714 -0.432 1000 651.45203"
   xml:space="preserve"
   id="svg4136"
   version="1.1"
   inkscape:version="0.91 r13725"
   sodipodi:docname="Toyota Black Symbol.svg"><metadata
   id="metadata4158"><rdf:RDF><cc:Work
       rdf:about=""><dc:format>image/svg+xml</dc:format><dc:type
         rdf:resource="http://purl.org/dc/dcmitype/StillImage" /><dc:title></dc:title></cc:Work></rdf:RDF></metadata><sodipodi:namedview
   pagecolor="#ffffff"
   bordercolor="#666666"
   borderopacity="1"
   objecttolerance="10"
   gridtolerance="10"
   guidetolerance="10"
   inkscape:pageopacity="0"
   inkscape:pageshadow="2"
   inkscape:window-width="1366"
   inkscape:window-height="705"
   id="namedview4156"
   showgrid="false"
   inkscape:zoom="0.5"
   inkscape:cx="403.25073"
   inkscape:cy="256.42353"
   inkscape:window-x="-8"
   inkscape:window-y="-8"
   inkscape:window-maximized="1"
   inkscape:current-layer="svg4136" />
	<defs
   id="defs4138">
	
		
		
		
		
		
		
		
	</defs>
	<path
   style="clip-rule:evenodd;fill:#000000;fill-rule:evenodd"
   inkscape:connector-curvature="0"
   id="path4142"
   d="M 467.94955,617.87261 C 415.51613,585.03037 376.88844,471.6914 376.88844,337.02952 c 0,-4.94139 0.0324,-9.81146 0.14256,-14.68152 l 0,0 0.0634,0.0713 0,0 C 231.25804,299.4995 125.88789,236.70775 123.18934,162.4561 l 0,0 -0.42796,0.85592 0,0 c -35.683432,44.34573 -56.051322,95.61813 -56.051322,150.25084 0,160.7597 176.467562,292.48131 400.296402,304.13144 l 0,0 0.94309,0.1782 0,0 0,0 z M -0.71399999,325.29223 c 0,-179.87938 223.84865999,-325.723776 500.00001999,-325.723776 276.14339,0 499.99998,145.844396 499.99998,325.723776 0,179.87936 -223.86055,325.72775 -499.99998,325.72775 -276.15136,0 -500.00001999,-145.85235 -500.00001999,-325.72775 l 0,0 0,0 0,0 z M 499.28602,46.577074 c 53.30916,0 98.65347,80.865276 115.45105,193.697046 l 0,0 0.0634,-0.17039 0,0 C 718.51028,223.96 791.12536,186.71925 791.12536,143.38399 c 0,-58.163396 -130.67544,-105.259196 -291.83934,-105.259196 -161.1758,0 -291.83939,47.09976 -291.83939,105.259196 0,43.33526 72.60321,80.57601 176.3249,96.71974 l 0,0 0.0634,0.17039 0,0 C 400.63252,127.44631 445.98871,46.577074 499.28603,46.577074 l 0,0 0,0 0,0 z m 32.2716,571.113266 C 755.38646,606.04417 931.87781,474.3186 931.87781,313.5589 c 0,-54.62875 -20.39168,-105.90115 -56.07115,-150.25084 l 0,0 -0.43589,-0.85592 0,0 c -2.69855,74.25165 -108.04096,137.0434 -253.89328,159.96322 l 0,0 0.0634,-0.0713 0,0 c 0.099,4.87006 0.15048,9.74013 0.15048,14.68152 0,134.66188 -38.6554,248.00085 -91.05715,280.84309 l 0,0 0.9233,-0.1782 0,0 0,0 z m -32.2716,-369.03131 c 23.88271,0 47.09974,-1.01839 69.31421,-2.97593 l 0,0 -0.0324,0.0356 0,0 c -11.05502,-72.32976 -37.90578,-123.37629 -69.28181,-123.37629 -31.37607,0 -58.22287,51.04653 -69.29445,123.37631 l 0,0 -0.0288,-0.0356 0,0 c 22.21447,1.95754 45.43942,2.97593 69.32217,2.97593 l 0,0 0,0 0,0 z m 0,267.84964 c 40.13345,0 72.87266,-83.52023 74.62017,-188.27618 l 0,0 0.21384,0.0753 0,0 c -24.19184,2.23888 -49.21582,3.40786 -74.8302,3.40786 -25.63821,0 -50.63839,-1.16898 -74.83023,-3.40786 l 0,0 0.22608,-0.0753 0,0 c 1.71976,104.75199 34.45104,188.27618 74.60037,188.27618 l 0,0 0,0 0,0 z" />
</svg>